<svg width="72" height="72" viewBox="0 0 72 72" fill="none" xmlns="http://www.w3.org/2000/svg">
<rect x="0.5" y="0.5" width="71" height="71" rx="11.5" fill="#141414"/>
<rect x="0.5" y="0.5" width="71" height="71" rx="11.5" stroke="#1F1F1F"/>
<g clip-path="url(#clip0_1_352)">
<g filter="url(#filter0_b_1_352)">
<path d="M26.3995 35.6C26.3995 30.9566 26.3883 26.302 26.3995 21.6587C26.3995 19.7474 27.3664 18.3533 29.0641 17.8023C29.4689 17.6674 29.9073 17.6112 30.3346 17.6112C34.2584 17.6 38.1822 17.6 42.0947 17.6112C44.377 17.6225 46.041 19.2752 46.041 21.5463C46.0522 30.9229 46.0522 40.2883 46.041 49.6649C46.041 51.936 44.377 53.6 42.106 53.6C38.2271 53.6112 34.3483 53.6112 30.4695 53.6C28.041 53.6 26.422 52.0035 26.4108 49.5525C26.3883 44.8979 26.3995 40.2546 26.3995 35.6ZM36.2259 20.8717C35.4614 20.8717 34.6968 20.8717 33.9211 20.8717C33.314 20.8829 32.9767 21.164 32.9654 21.6587C32.9542 22.1646 33.269 22.5132 33.8536 22.5132C35.4276 22.5356 36.9904 22.5356 38.5644 22.5132C39.1266 22.5019 39.5088 22.1196 39.4864 21.6587C39.4639 21.1865 39.0928 20.8717 38.5195 20.8717C37.7549 20.8717 36.9904 20.8717 36.2259 20.8717ZM36.2259 47.079C35.304 47.079 34.5732 47.8098 34.5844 48.7093C34.5957 49.6087 35.3489 50.3395 36.2484 50.3283C37.1253 50.317 37.8336 49.5975 37.8336 48.7093C37.8449 47.7761 37.1478 47.079 36.2259 47.079Z" fill="#E60000"/>
<path d="M33.9211 20.3716V20.3717H33.9256H33.9302H33.9347H33.9393H33.9438H33.9483H33.9529H33.9574H33.962H33.9665H33.9711H33.9756H33.9801H33.9847H33.9892H33.9938H33.9983H34.0029H34.0074H34.0119H34.0165H34.021H34.0256H34.0301H34.0346H34.0392H34.0437H34.0483H34.0528H34.0573H34.0619H34.0664H34.0709H34.0755H34.08H34.0846H34.0891H34.0936H34.0982H34.1027H34.1072H34.1118H34.1163H34.1208H34.1254H34.1299H34.1344H34.139H34.1435H34.148H34.1526H34.1571H34.1616H34.1662H34.1707H34.1752H34.1798H34.1843H34.1888H34.1934H34.1979H34.2024H34.207H34.2115H34.216H34.2205H34.2251H34.2296H34.2341H34.2387H34.2432H34.2477H34.2522H34.2568H34.2613H34.2658H34.2704H34.2749H34.2794H34.2839H34.2885H34.293H34.2975H34.302H34.3066H34.3111H34.3156H34.3201H34.3247H34.3292H34.3337H34.3382H34.3428H34.3473H34.3518H34.3563H34.3609H34.3654H34.3699H34.3744H34.3789H34.3835H34.388H34.3925H34.397H34.4016H34.4061H34.4106H34.4151H34.4196H34.4242H34.4287H34.4332H34.4377H34.4422H34.4468H34.4513H34.4558H34.4603H34.4648H34.4693H34.4739H34.4784H34.4829H34.4874H34.4919H34.4965H34.501H34.5055H34.51H34.5145H34.519H34.5236H34.5281H34.5326H34.5371H34.5416H34.5461H34.5506H34.5552H34.5597H34.5642H34.5687H34.5732H34.5777H34.5822H34.5868H34.5913H34.5958H34.6003H34.6048H34.6093H34.6138H34.6183H34.6229H34.6274H34.6319H34.6364H34.6409H34.6454H34.6499H34.6544H34.6589H34.6634H34.668H34.6725H34.677H34.6815H34.686H34.6905H34.695H34.6995H34.704H34.7085H34.713H34.7176H34.7221H34.7266H34.7311H34.7356H34.7401H34.7446H34.7491H34.7536H34.7581H34.7626H34.7671H34.7716H34.7761H34.7807H34.7852H34.7897H34.7942H34.7987H34.8032H34.8077H34.8122H34.8167H34.8212H34.8257H34.8302H34.8347H34.8392H34.8437H34.8482H34.8527H34.8572H34.8617H34.8662H34.8707H34.8752H34.8797H34.8842H34.8887H34.8932H34.8977H34.9022H34.9067H34.9113H34.9158H34.9203H34.9248H34.9293H34.9338H34.9383H34.9428H34.9473H34.9518H34.9563H34.9608H34.9653H34.9698H34.9743H34.9788H34.9833H34.9878H34.9922H34.9967H35.0012H35.0057H35.0102H35.0147H35.0192H35.0237H35.0282H35.0327H35.0372H35.0417H35.0462H35.0507H35.0552H35.0597H35.0642H35.0687H35.0732H35.0777H35.0822H35.0867H35.0912H35.0957H35.1002H35.1047H35.1092H35.1137H35.1182H35.1227H35.1271H35.1316H35.1361H35.1406H35.1451H35.1496H35.1541H35.1586H35.1631H35.1676H35.1721H35.1766H35.1811H35.1856H35.1901H35.1946H35.199H35.2035H35.208H35.2125H35.217H35.2215H35.226H35.2305H35.235H35.2395H35.244H35.2485H35.253H35.2574H35.2619H35.2664H35.2709H35.2754H35.2799H35.2844H35.2889H35.2934H35.2979H35.3024H35.3068H35.3113H35.3158H35.3203H35.3248H35.3293H35.3338H35.3383H35.3428H35.3473H35.3517H35.3562H35.3607H35.3652H35.3697H35.3742H35.3787H35.3832H35.3877H35.3921H35.3966H35.4011H35.4056H35.4101H35.4146H35.4191H35.4236H35.428H35.4325H35.437H35.4415H35.446H35.4505H35.455H35.4595H35.4639H35.4684H35.4729H35.4774H35.4819H35.4864H35.4909H35.4953H35.4998H35.5043H35.5088H35.5133H35.5178H35.5223H35.5267H35.5312H35.5357H35.5402H35.5447H35.5492H35.5537H35.5581H35.5626H35.5671H35.5716H35.5761H35.5806H35.5851H35.5895H35.594H35.5985H35.603H35.6075H35.612H35.6164H35.6209H35.6254H35.6299H35.6344H35.6389H35.6434H35.6478H35.6523H35.6568H35.6613H35.6658H35.6703H35.6747H35.6792H35.6837H35.6882H35.6927H35.6972H35.7016H35.7061H35.7106H35.7151H35.7196H35.7241H35.7285H35.733H35.7375H35.742H35.7465H35.7509H35.7554H35.7599H35.7644H35.7689H35.7734H35.7778H35.7823H35.7868H35.7913H35.7958H35.8003H35.8047H35.8092H35.8137H35.8182H35.8227H35.8271H35.8316H35.8361H35.8406H35.8451H35.8495H35.854H35.8585H35.863H35.8675H35.872H35.8764H35.8809H35.8854H35.8899H35.8944H35.8988H35.9033H35.9078H35.9123H35.9168H35.9212H35.9257H35.9302H35.9347H35.9392H35.9437H35.9481H35.9526H35.9571H35.9616H35.9661H35.9705H35.975H35.9795H35.984H35.9885H35.9929H35.9974H36.0019H36.0064H36.0109H36.0153H36.0198H36.0243H36.0288H36.0333H36.0377H36.0422H36.0467H36.0512H36.0557H36.0601H36.0646H36.0691H36.0736H36.0781H36.0825H36.087H36.0915H36.096H36.1005H36.1049H36.1094H36.1139H36.1184H36.1229H36.1273H36.1318H36.1363H36.1408H36.1453H36.1497H36.1542H36.1587H36.1632H36.1677H36.1721H36.1766H36.1811H36.1856H36.1901H36.1945H36.199H36.2035H36.208H36.2124H36.2169H36.2214H36.2259H36.2304H36.2348H36.2393H36.2438H36.2483H36.2528H36.2572H36.2617H36.2662H36.2707H36.2752H36.2796H36.2841H36.2886H36.2931H36.2976H36.302H36.3065H36.311H36.3155H36.32H36.3244H36.3289H36.3334H36.3379H36.3424H36.3468H36.3513H36.3558H36.3603H36.3648H36.3692H36.3737H36.3782H36.3827H36.3872H36.3916H36.3961H36.4006H36.4051H36.4096H36.414H36.4185H36.423H36.4275H36.432H36.4364H36.4409H36.4454H36.4499H36.4543H36.4588H36.4633H36.4678H36.4723H36.4767H36.4812H36.4857H36.4902H36.4947H36.4991H36.5036H36.5081H36.5126H36.5171H36.5215H36.526H36.5305H36.535H36.5395H36.5439H36.5484H36.5529H36.5574H36.5619H36.5663H36.5708H36.5753H36.5798H36.5843H36.5887H36.5932H36.5977H36.6022H36.6067H36.6111H36.6156H36.6201H36.6246H36.6291H36.6335H36.638H36.6425H36.647H36.6515H36.6559H36.6604H36.6649H36.6694H36.6739H36.6783H36.6828H36.6873H36.6918H36.6962H36.7007H36.7052H36.7097H36.7142H36.7186H36.7231H36.7276H36.7321H36.7366H36.741H36.7455H36.75H36.7545H36.759H36.7634H36.7679H36.7724H36.7769H36.7814H36.7858H36.7903H36.7948H36.7993H36.8038H36.8082H36.8127H36.8172H36.8217H36.8262H36.8306H36.8351H36.8396H36.8441H36.8486H36.853H36.8575H36.862H36.8665H36.871H36.8754H36.8799H36.8844H36.8889H36.8934H36.8978H36.9023H36.9068H36.9113H36.9157H36.9202H36.9247H36.9292H36.9337H36.9381H36.9426H36.9471H36.9516H36.9561H36.9605H36.965H36.9695H36.974H36.9785H36.9829H36.9874H36.9919H36.9964H37.0009H37.0053H37.0098H37.0143H37.0188H37.0233H37.0277H37.0322H37.0367H37.0412H37.0457H37.0501H37.0546H37.0591H37.0636H37.0681H37.0725H37.077H37.0815H37.086H37.0905H37.0949H37.0994H37.1039H37.1084H37.1129H37.1173H37.1218H37.1263H37.1308H37.1353H37.1397H37.1442H37.1487H37.1532H37.1576H37.1621H37.1666H37.1711H37.1756H37.18H37.1845H37.189H37.1935H37.198H37.2024H37.2069H37.2114H37.2159H37.2204H37.2248H37.2293H37.2338H37.2383H37.2428H37.2472H37.2517H37.2562H37.2607H37.2652H37.2696H37.2741H37.2786H37.2831H37.2876H37.292H37.2965H37.301H37.3055H37.31H37.3144H37.3189H37.3234H37.3279H37.3324H37.3368H37.3413H37.3458H37.3503H37.3548H37.3592H37.3637H37.3682H37.3727H37.3772H37.3816H37.3861H37.3906H37.3951H37.3995H37.404H37.4085H37.413H37.4175H37.4219H37.4264H37.4309H37.4354H37.4399H37.4443H37.4488H37.4533H37.4578H37.4623H37.4667H37.4712H37.4757H37.4802H37.4847H37.4891H37.4936H37.4981H37.5026H37.5071H37.5115H37.516H37.5205H37.525H37.5295H37.5339H37.5384H37.5429H37.5474H37.5519H37.5563H37.5608H37.5653H37.5698H37.5743H37.5787H37.5832H37.5877H37.5922H37.5967H37.6011H37.6056H37.6101H37.6146H37.6191H37.6235H37.628H37.6325H37.637H37.6414H37.6459H37.6504H37.6549H37.6594H37.6638H37.6683H37.6728H37.6773H37.6818H37.6862H37.6907H37.6952H37.6997H37.7042H37.7086H37.7131H37.7176H37.7221H37.7266H37.731H37.7355H37.74H37.7445H37.749H37.7534H37.7579H37.7624H37.7669H37.7714H37.7758H37.7803H37.7848H37.7893H37.7938H37.7982H37.8027H37.8072H37.8117H37.8162H37.8206H37.8251H37.8296H37.8341H37.8386H37.843H37.8475H37.852H37.8565H37.861H37.8654H37.8699H37.8744H37.8789H37.8833H37.8878H37.8923H37.8968H37.9013H37.9057H37.9102H37.9147H37.9192H37.9237H37.9281H37.9326H37.9371H37.9416H37.9461H37.9505H37.955H37.9595H37.964H37.9685H37.9729H37.9774H37.9819H37.9864H37.9909H37.9953H37.9998H38.0043H38.0088H38.0133H38.0177H38.0222H38.0267H38.0312H38.0357H38.0401H38.0446H38.0491H38.0536H38.0581H38.0625H38.067H38.0715H38.076H38.0805H38.0849H38.0894H38.0939H38.0984H38.1028H38.1073H38.1118H38.1163H38.1208H38.1252H38.1297H38.1342H38.1387H38.1432H38.1476H38.1521H38.1566H38.1611H38.1656H38.17H38.1745H38.179H38.1835H38.188H38.1924H38.1969H38.2014H38.2059H38.2104H38.2148H38.2193H38.2238H38.2283H38.2328H38.2372H38.2417H38.2462H38.2507H38.2552H38.2596H38.2641H38.2686H38.2731H38.2776H38.282H38.2865H38.291H38.2955H38.3H38.3044H38.3089H38.3134H38.3179H38.3224H38.3268H38.3313H38.3358H38.3403H38.3447H38.3492H38.3537H38.3582H38.3627H38.3671H38.3716H38.3761H38.3806H38.3851H38.3895H38.394H38.3985H38.403H38.4075H38.4119H38.4164H38.4209H38.4254H38.4299H38.4343H38.4388H38.4433H38.4478H38.4523H38.4567H38.4612H38.4657H38.4702H38.4747H38.4791H38.4836H38.4881H38.4926H38.4971H38.5015H38.506H38.5105H38.515H38.5195C38.8954 20.3717 39.2519 20.4753 39.5273 20.7021C39.8089 20.934 39.968 21.2648 39.9858 21.6343C39.9858 21.6345 39.9858 21.6347 39.9858 21.6349L39.4864 21.6587C39.5088 22.1196 39.1266 22.5019 38.5644 22.5132C36.9904 22.5356 35.4276 22.5356 33.8536 22.5132C33.269 22.5132 32.9542 22.1646 32.9654 21.6587L33.9211 20.3716ZM33.9211 20.3716L33.9118 20.3718C33.5404 20.3786 33.1795 20.4686 32.9014 20.6984C32.6096 20.9394 32.4739 21.2803 32.4656 21.6473L32.4655 21.6476C32.4575 22.0077 32.5667 22.3634 32.8325 22.6292C33.097 22.8936 33.4596 23.0124 33.8498 23.0131L33.9211 20.3716ZM26.8995 21.6599V21.6587C26.8995 19.9445 27.7449 18.7561 29.2184 18.2779L29.2184 18.2779L29.2222 18.2767C29.5656 18.1622 29.9489 18.1112 30.3346 18.1112L30.336 18.1112C34.2587 18.1 38.1813 18.1 42.0928 18.1112C44.1039 18.1214 45.541 19.5547 45.541 21.5463L45.541 21.5469C45.5522 30.9231 45.5522 40.2881 45.541 49.6643V49.6649C45.541 51.6599 44.1009 53.1 42.106 53.1L42.1045 53.1C38.2267 53.1112 34.3488 53.1112 30.4709 53.1H30.4695C29.367 53.1 28.4887 52.7397 27.8862 52.1407C27.2838 51.5419 26.9159 50.6637 26.9108 49.5502L26.9108 49.5501C26.8939 46.061 26.896 42.5786 26.8981 39.0916C26.8988 37.9284 26.8995 36.7647 26.8995 35.6C26.8995 34.0517 26.8983 32.5027 26.897 30.9534C26.8945 27.8546 26.892 24.7551 26.8995 21.6599ZM36.2546 50.8282L36.2548 50.8282C37.4074 50.8134 38.332 49.8697 38.3336 48.7123C38.3467 47.501 37.4242 46.579 36.2259 46.579C35.0336 46.579 34.0696 47.5294 34.0845 48.7155C34.0992 49.8926 35.0806 50.8429 36.2546 50.8282Z" stroke="#E60000"/>
</g>
</g>
<defs>
<filter id="filter0_b_1_352" x="14.3945" y="5.60278" width="43.6543" height="60.0056" filterUnits="userSpaceOnUse" color-interpolation-filters="sRGB">
<feFlood flood-opacity="0" result="BackgroundImageFix"/>
<feGaussianBlur in="BackgroundImageFix" stdDeviation="6"/>
<feComposite in2="SourceAlpha" operator="in" result="effect1_backgroundBlur_1_352"/>
<feBlend mode="normal" in="SourceGraphic" in2="effect1_backgroundBlur_1_352" result="shape"/>
</filter>
<clipPath id="clip0_1_352">
<rect width="19.6415" height="36" fill="white" transform="translate(26.4004 17.6)"/>
</clipPath>
</defs>
</svg>
