<svg width="73" height="72" viewBox="0 0 73 72" fill="none" xmlns="http://www.w3.org/2000/svg">
<rect x="1.16602" y="0.5" width="71" height="71" rx="11.5" fill="#141414"/>
<rect x="1.16602" y="0.5" width="71" height="71" rx="11.5" stroke="#1F1F1F"/>
<g clip-path="url(#clip0_1_368)">
<g filter="url(#filter0_b_1_368)">
<mask id="path-2-inside-1_1_368" fill="white">
<path fillRule="evenodd" clipRule="evenodd" d="M19.4663 39.3457V39.8258C31.0406 39.8258 42.5367 39.8258 54.0775 39.8146V39.3345V24.3184C54.0775 23.269 53.6087 22.8 52.5372 22.8H21.0066C19.924 22.8 19.4663 23.269 19.4663 24.3296V39.3457ZM35.7232 34.2975C35.2566 34.5674 34.7868 34.8392 34.3109 35.1144V28.5497C35.5188 29.2534 36.7087 29.9389 37.9121 30.6323C38.599 31.0281 39.2903 31.4264 39.992 31.8321C38.5454 32.6649 37.1495 33.4724 35.7232 34.2975ZM48.6767 45.8189C48.5663 45.5482 48.4534 45.2712 48.3405 44.9837H48.3413C49.8478 44.9837 51.265 44.9837 52.6599 44.9726C53.4189 44.9614 53.9993 44.5372 54.0328 43.8561C54.0713 43.2079 54.0619 42.5544 54.0524 41.8955C54.0482 41.6011 54.0439 41.3057 54.0439 41.0092H19.4551V43.3761C19.4551 44.5037 19.9239 44.9726 21.04 44.9726H25.1808C24.8349 45.8432 24.5113 46.6468 24.1877 47.4504L24.1875 47.4511C24.0535 47.8083 23.9977 48.1656 24.4442 48.3331C24.8795 48.5005 25.0915 48.2102 25.2366 47.853C25.3347 47.611 25.4347 47.37 25.5346 47.129C25.7759 46.5475 26.0169 45.9666 26.23 45.3745C26.3528 45.0507 26.5202 44.9726 26.8439 44.9726C33.4625 44.9837 40.0811 44.9837 46.6998 44.9726C47.0458 44.9726 47.1909 45.0842 47.3025 45.3968C47.5557 46.069 47.8259 46.7241 48.0983 47.3845C48.1381 47.481 48.1779 47.5776 48.2177 47.6744C48.2456 47.7358 48.2707 47.7944 48.2959 47.853C48.321 47.9116 48.3461 47.9702 48.374 48.0316C48.5191 48.3554 48.8204 48.5117 49.0883 48.3219C49.2669 48.1991 49.4231 47.8083 49.3562 47.6074C49.1627 47.0112 48.9262 46.4312 48.6767 45.8189ZM40.9852 43.2086H36.7439C36.2756 43.2086 35.806 43.2074 35.3359 43.2061C34.3947 43.2036 33.4517 43.2011 32.5138 43.2086C32.1343 43.2086 31.766 43.1639 31.7548 42.6839C31.7437 42.1926 32.112 42.0922 32.5249 42.0922H40.9964C41.3982 42.0922 41.7777 42.1815 41.7777 42.6727C41.7777 43.1863 41.3759 43.2086 40.9852 43.2086Z"/>
</mask>
<path fillRule="evenodd" clipRule="evenodd" d="M19.4663 39.3457V39.8258C31.0406 39.8258 42.5367 39.8258 54.0775 39.8146V39.3345V24.3184C54.0775 23.269 53.6087 22.8 52.5372 22.8H21.0066C19.924 22.8 19.4663 23.269 19.4663 24.3296V39.3457ZM35.7232 34.2975C35.2566 34.5674 34.7868 34.8392 34.3109 35.1144V28.5497C35.5188 29.2534 36.7087 29.9389 37.9121 30.6323C38.599 31.0281 39.2903 31.4264 39.992 31.8321C38.5454 32.6649 37.1495 33.4724 35.7232 34.2975ZM48.6767 45.8189C48.5663 45.5482 48.4534 45.2712 48.3405 44.9837H48.3413C49.8478 44.9837 51.265 44.9837 52.6599 44.9726C53.4189 44.9614 53.9993 44.5372 54.0328 43.8561C54.0713 43.2079 54.0619 42.5544 54.0524 41.8955C54.0482 41.6011 54.0439 41.3057 54.0439 41.0092H19.4551V43.3761C19.4551 44.5037 19.9239 44.9726 21.04 44.9726H25.1808C24.8349 45.8432 24.5113 46.6468 24.1877 47.4504L24.1875 47.4511C24.0535 47.8083 23.9977 48.1656 24.4442 48.3331C24.8795 48.5005 25.0915 48.2102 25.2366 47.853C25.3347 47.611 25.4347 47.37 25.5346 47.129C25.7759 46.5475 26.0169 45.9666 26.23 45.3745C26.3528 45.0507 26.5202 44.9726 26.8439 44.9726C33.4625 44.9837 40.0811 44.9837 46.6998 44.9726C47.0458 44.9726 47.1909 45.0842 47.3025 45.3968C47.5557 46.069 47.8259 46.7241 48.0983 47.3845C48.1381 47.481 48.1779 47.5776 48.2177 47.6744C48.2456 47.7358 48.2707 47.7944 48.2959 47.853C48.321 47.9116 48.3461 47.9702 48.374 48.0316C48.5191 48.3554 48.8204 48.5117 49.0883 48.3219C49.2669 48.1991 49.4231 47.8083 49.3562 47.6074C49.1627 47.0112 48.9262 46.4312 48.6767 45.8189ZM40.9852 43.2086H36.7439C36.2756 43.2086 35.806 43.2074 35.3359 43.2061C34.3947 43.2036 33.4517 43.2011 32.5138 43.2086C32.1343 43.2086 31.766 43.1639 31.7548 42.6839C31.7437 42.1926 32.112 42.0922 32.5249 42.0922H40.9964C41.3982 42.0922 41.7777 42.1815 41.7777 42.6727C41.7777 43.1863 41.3759 43.2086 40.9852 43.2086Z" fill="#E60000"/>
<path d="M19.4663 39.8258H18.4663V40.8258H19.4663V39.8258ZM54.0775 39.8146L54.0785 40.8146L55.0775 40.8136V39.8146H54.0775ZM34.3109 35.1144H33.3109V36.8477L34.8114 35.9801L34.3109 35.1144ZM35.7232 34.2975L35.2224 33.4319L35.2224 33.4319L35.7232 34.2975ZM34.3109 28.5497L34.8142 27.6856L33.3109 26.8099V28.5497H34.3109ZM37.9121 30.6323L38.4114 29.7658L38.4114 29.7658L37.9121 30.6323ZM39.992 31.8321L40.4909 32.6987L41.9929 31.8339L40.4925 30.9664L39.992 31.8321ZM48.3405 44.9837V43.9837H46.8734L47.4097 45.3493L48.3405 44.9837ZM48.6767 45.8189L49.6027 45.4414L49.6027 45.4414L48.6767 45.8189ZM52.6599 44.9726L52.6679 45.9726L52.6746 45.9725L52.6599 44.9726ZM54.0328 43.8561L53.0345 43.7967L53.034 43.807L54.0328 43.8561ZM54.0524 41.8955L55.0523 41.8811L55.0523 41.8811L54.0524 41.8955ZM54.0439 41.0092H55.0439V40.0092H54.0439V41.0092ZM19.4551 41.0092V40.0092H18.4551V41.0092H19.4551ZM25.1808 44.9726L26.1102 45.3418L26.6542 43.9726H25.1808V44.9726ZM24.1877 47.4504L23.2601 47.0769L23.2601 47.0769L24.1877 47.4504ZM24.1875 47.4511L23.2598 47.0776L23.2553 47.0887L23.2511 47.1L24.1875 47.4511ZM24.4442 48.3331L24.8033 47.3997L24.7954 47.3968L24.4442 48.3331ZM25.2366 47.853L26.1631 48.2293L26.1634 48.2286L25.2366 47.853ZM25.5346 47.129L26.4583 47.5122L26.4583 47.5122L25.5346 47.129ZM26.23 45.3745L25.295 45.0199L25.2919 45.0279L25.2891 45.0359L26.23 45.3745ZM26.8439 44.9726L26.8455 43.9726H26.8439V44.9726ZM46.6998 44.9726V43.9726L46.6981 43.9726L46.6998 44.9726ZM47.3025 45.3968L46.3607 45.7331L46.3636 45.7412L46.3667 45.7493L47.3025 45.3968ZM48.0983 47.3845L49.0227 47.0033L49.0227 47.0033L48.0983 47.3845ZM48.2177 47.6744L47.293 48.055L47.2999 48.0717L47.3073 48.0881L48.2177 47.6744ZM48.374 48.0316L49.2865 47.6227L49.2844 47.6179L48.374 48.0316ZM49.0883 48.3219L48.5216 47.4978L48.5102 47.5059L49.0883 48.3219ZM49.3562 47.6074L48.405 47.9161L48.4075 47.9235L49.3562 47.6074ZM35.3359 43.2061L35.3386 42.2061L35.3386 42.2061L35.3359 43.2061ZM32.5138 43.2086L32.5138 44.2086L32.5217 44.2086L32.5138 43.2086ZM31.7548 42.6839L30.7551 42.7066L30.7551 42.7071L31.7548 42.6839ZM20.4663 39.8258V39.3457H18.4663V39.8258H20.4663ZM54.0765 38.8146C42.5363 38.8258 31.0407 38.8258 19.4663 38.8258V40.8258C31.0405 40.8258 42.5371 40.8258 54.0785 40.8146L54.0765 38.8146ZM53.0775 39.3345V39.8146H55.0775V39.3345H53.0775ZM53.0775 24.3184V39.3345H55.0775V24.3184H53.0775ZM52.5372 23.8C52.9521 23.8 53.0235 23.894 53.0059 23.8766C52.9859 23.8569 53.0775 23.9194 53.0775 24.3184H55.0775C55.0775 23.668 54.9347 22.9713 54.4124 22.4547C53.8926 21.9406 53.1939 21.8 52.5372 21.8V23.8ZM21.0066 23.8H52.5372V21.8H21.0066V23.8ZM20.4663 24.3296C20.4663 23.9167 20.5589 23.8528 20.5377 23.8741C20.5166 23.8952 20.5832 23.8 21.0066 23.8V21.8C20.3473 21.8 19.6439 21.9393 19.1233 22.4601C18.6026 22.9809 18.4663 23.6818 18.4663 24.3296H20.4663ZM20.4663 39.3457V24.3296H18.4663V39.3457H20.4663ZM34.8114 35.9801C35.2874 35.7049 35.7574 35.433 36.2239 35.1631L35.2224 33.4319C34.7559 33.7018 34.2861 33.9736 33.8103 34.2487L34.8114 35.9801ZM33.3109 28.5497V35.1144H35.3109V28.5497H33.3109ZM38.4114 29.7658C37.2076 29.0723 36.0198 28.3879 34.8142 27.6856L33.8075 29.4138C35.0179 30.1189 36.2098 30.8056 37.4129 31.4988L38.4114 29.7658ZM40.4925 30.9664C39.7901 30.5602 39.0981 30.1615 38.4114 29.7658L37.4129 31.4988C38.0999 31.8946 38.7905 32.2925 39.4914 32.6978L40.4925 30.9664ZM36.2239 35.1631C37.6504 34.3379 39.0454 33.5309 40.4909 32.6987L39.493 30.9654C38.0454 31.7989 36.6487 32.6069 35.2224 33.4319L36.2239 35.1631ZM47.4097 45.3493C47.5253 45.6437 47.6406 45.9265 47.7506 46.1964L49.6027 45.4414C49.492 45.1699 49.3815 44.8988 49.2713 44.6182L47.4097 45.3493ZM48.3413 43.9837H48.3405V45.9837H48.3413V43.9837ZM52.6519 43.9726C51.2617 43.9837 49.8485 43.9837 48.3413 43.9837V45.9837C49.847 45.9837 51.2683 45.9837 52.6679 45.9725L52.6519 43.9726ZM53.034 43.807C53.0324 43.8381 53.0261 43.8502 53.0247 43.8529C53.023 43.8563 53.0174 43.866 52.9991 43.8804C52.9593 43.9118 52.8494 43.9697 52.6452 43.9727L52.6746 45.9725C53.7682 45.9564 54.9637 45.2862 55.0315 43.9052L53.034 43.807ZM53.0525 41.9099C53.0621 42.5752 53.0705 43.1916 53.0345 43.7967L55.031 43.9155C55.0721 43.2242 55.0617 42.5335 55.0523 41.8811L53.0525 41.9099ZM53.0439 41.0092C53.0439 41.3141 53.0483 41.6167 53.0525 41.9099L55.0523 41.8811C55.0481 41.5855 55.0439 41.2973 55.0439 41.0092H53.0439ZM19.4551 42.0092H54.0439V40.0092H19.4551V42.0092ZM20.4551 43.3761V41.0092H18.4551V43.3761H20.4551ZM21.04 43.9726C20.8257 43.9726 20.6922 43.9494 20.6145 43.9256C20.5777 43.9143 20.5572 43.904 20.5478 43.8986C20.5431 43.8959 20.5405 43.894 20.5394 43.8931C20.5388 43.8927 20.5385 43.8924 20.5383 43.8923C20.5382 43.8922 20.5381 43.8921 20.5381 43.8921C20.5381 43.8921 20.538 43.892 20.5378 43.8918C20.5377 43.8916 20.5373 43.8912 20.5368 43.8905C20.5358 43.8892 20.5338 43.8863 20.5308 43.8812C20.525 43.871 20.5144 43.8494 20.5028 43.8112C20.4784 43.7307 20.4551 43.594 20.4551 43.3761H18.4551C18.4551 44.048 18.59 44.7693 19.1199 45.3023C19.6511 45.8366 20.3714 45.9726 21.04 45.9726V43.9726ZM25.1808 43.9726H21.04V45.9726H25.1808V43.9726ZM25.1153 47.8239C25.4388 47.0206 25.7633 46.2149 26.1102 45.3418L24.2515 44.6033C23.9066 45.4715 23.5838 46.2731 23.2601 47.0769L25.1153 47.8239ZM25.1151 47.8246L25.1154 47.8239L23.2601 47.0769L23.2598 47.0776L25.1151 47.8246ZM24.7954 47.3968C24.7984 47.3979 24.8687 47.4251 24.9455 47.5119C25.0282 47.6052 25.0707 47.7135 25.0853 47.8032C25.0978 47.8801 25.0867 47.9232 25.0893 47.9102C25.0916 47.8986 25.0999 47.8659 25.1238 47.8021L23.2511 47.1C23.1781 47.2948 23.0407 47.6892 23.1111 48.1233C23.1507 48.3678 23.2547 48.6192 23.4482 48.8378C23.636 49.0498 23.8667 49.1845 24.093 49.2694L24.7954 47.3968ZM24.3101 47.4767C24.2865 47.5349 24.2713 47.562 24.2664 47.5697C24.261 47.5783 24.2819 47.5414 24.3407 47.4963C24.4082 47.4445 24.5059 47.3978 24.621 47.385C24.7293 47.373 24.7967 47.3972 24.8032 47.3997L24.0851 49.2664C24.5792 49.4564 25.1171 49.4212 25.5578 49.0833C25.9065 48.8159 26.0778 48.4394 26.1631 48.2293L24.3101 47.4767ZM24.611 46.7459C24.5113 46.9861 24.4097 47.231 24.3098 47.4774L26.1634 48.2286C26.2597 47.991 26.3581 47.7538 26.4583 47.5122L24.611 46.7459ZM25.2891 45.0359C25.0854 45.6017 24.8538 46.1606 24.611 46.7459L26.4583 47.5122C26.6981 46.9343 26.9484 46.3314 27.1709 45.7131L25.2891 45.0359ZM26.8439 43.9726C26.6267 43.9726 26.2757 43.9927 25.9381 44.2001C25.579 44.4207 25.3977 44.7491 25.295 45.0199L27.165 45.7291C27.1851 45.6761 27.1489 45.8035 26.9851 45.9041C26.8428 45.9916 26.7373 45.9726 26.8439 45.9726V43.9726ZM46.6981 43.9726C40.0806 43.9837 33.4631 43.9837 26.8455 43.9726L26.8422 45.9726C33.4619 45.9837 40.0817 45.9837 46.7015 45.9726L46.6981 43.9726ZM48.2443 45.0606C48.1614 44.8284 48.0082 44.4959 47.6715 44.2546C47.3324 44.0116 46.9637 43.9726 46.6998 43.9726V45.9726C46.7819 45.9726 46.6587 45.9893 46.5065 45.8803C46.3568 45.773 46.332 45.6526 46.3607 45.7331L48.2443 45.0606ZM49.0227 47.0033C48.7494 46.3406 48.4852 45.6996 48.2383 45.0443L46.3667 45.7493C46.6262 46.4383 46.9024 47.1077 47.1738 47.7658L49.0227 47.0033ZM49.1424 47.2937C49.1025 47.1966 49.0625 47.0997 49.0227 47.0033L47.1738 47.7658C47.2136 47.8623 47.2533 47.9586 47.293 48.055L49.1424 47.2937ZM49.215 47.4591C49.1905 47.4018 49.1612 47.3335 49.1281 47.2607L47.3073 48.0881C47.33 48.1381 47.351 48.187 47.3767 48.2468L49.215 47.4591ZM49.2844 47.6179C49.2617 47.5679 49.2407 47.519 49.215 47.4591L47.3767 48.2468C47.4012 48.3042 47.4305 48.3725 47.4636 48.4453L49.2844 47.6179ZM48.5102 47.5059C48.5713 47.4627 48.6641 47.4194 48.7823 47.4073C48.8997 47.3953 49.0056 47.4179 49.0876 47.4539C49.241 47.5214 49.2844 47.6179 49.2865 47.6227L47.4614 48.4406C47.6086 48.7691 47.8753 49.1057 48.2826 49.2848C48.7324 49.4826 49.2469 49.4351 49.6664 49.1378L48.5102 47.5059ZM48.4075 47.9235C48.3611 47.7845 48.3727 47.685 48.3748 47.6673C48.3782 47.6391 48.3829 47.63 48.3807 47.6357C48.3788 47.6406 48.3789 47.6378 48.3875 47.6251C48.3911 47.6198 48.43 47.561 48.5217 47.4979L49.6549 49.1459C49.9832 48.9201 50.1621 48.5759 50.2479 48.3522C50.3281 48.1434 50.4491 47.7241 50.3049 47.2912L48.4075 47.9235ZM47.7506 46.1964C48.0027 46.8148 48.2248 47.3608 48.405 47.9161L50.3073 47.2986C50.1006 46.6617 49.8498 46.0476 49.6027 45.4414L47.7506 46.1964ZM36.7439 44.2086H40.9852V42.2086H36.7439V44.2086ZM35.3333 44.2061C35.8031 44.2074 36.274 44.2086 36.7439 44.2086V42.2086C36.2771 42.2086 35.8088 42.2074 35.3386 42.2061L35.3333 44.2061ZM32.5217 44.2086C33.4535 44.2012 34.3911 44.2036 35.3333 44.2061L35.3386 42.2061C34.3982 42.2036 33.45 42.2011 32.5058 42.2086L32.5217 44.2086ZM30.7551 42.7071C30.7608 42.9533 30.8144 43.2223 30.9621 43.4741C31.114 43.7333 31.3271 43.9086 31.5453 44.0189C31.9239 44.2101 32.3367 44.2086 32.5138 44.2086V42.2086C32.433 42.2086 32.3907 42.2058 32.3682 42.2028C32.3442 42.1996 32.3822 42.2009 32.447 42.2337C32.5243 42.2727 32.6195 42.3468 32.6874 42.4627C32.751 42.5711 32.7544 42.6544 32.7545 42.6606L30.7551 42.7071ZM32.5249 41.0922C32.2801 41.0922 31.8496 41.1132 31.4613 41.3493C30.9684 41.6491 30.7427 42.1602 30.7551 42.7066L32.7546 42.6612C32.7546 42.6632 32.7555 42.7343 32.7061 42.8329C32.6532 42.9382 32.5733 43.0139 32.5004 43.0583C32.4374 43.0965 32.397 43.1014 32.4107 43.0988C32.423 43.0966 32.4582 43.0922 32.5249 43.0922V41.0922ZM40.9964 41.0922H32.5249V43.0922H40.9964V41.0922ZM42.7777 42.6727C42.7777 42.4211 42.7286 42.1524 42.5918 41.8993C42.4521 41.6408 42.2515 41.4556 42.0375 41.3321C41.6517 41.1095 41.2294 41.0922 40.9964 41.0922V43.0922C41.0638 43.0922 41.1008 43.0962 41.1163 43.0989C41.1332 43.1019 41.0971 43.0985 41.0379 43.0643C40.9689 43.0246 40.8883 42.9538 40.8323 42.8502C40.7793 42.752 40.7777 42.6787 40.7777 42.6727H42.7777ZM40.9852 44.2086C41.1402 44.2086 41.5675 44.2186 41.9514 44.0392C42.1785 43.933 42.4083 43.7558 42.5704 43.4806C42.7273 43.2143 42.7777 42.9292 42.7777 42.6727H40.7777C40.7777 42.6725 40.7776 42.6505 40.7864 42.6134C40.7955 42.5749 40.8134 42.5228 40.8471 42.4656C40.9217 42.339 41.0266 42.2637 41.1045 42.2273C41.1677 42.1978 41.2009 42.1991 41.1652 42.203C41.1312 42.2067 41.0802 42.2086 40.9852 42.2086V44.2086Z" fill="#E60000" mask="url(#path-2-inside-1_1_368)"/>
</g>
</g>
<defs>
<filter id="filter0_b_1_368" x="7.45508" y="10.8" width="58.623" height="49.604" filterUnits="userSpaceOnUse" color-interpolation-filters="sRGB">
<feFlood flood-opacity="0" result="BackgroundImageFix"/>
<feGaussianBlur in="BackgroundImageFix" stdDeviation="6"/>
<feComposite in2="SourceAlpha" operator="in" result="effect1_backgroundBlur_1_368"/>
<feBlend mode="normal" in="SourceGraphic" in2="effect1_backgroundBlur_1_368" result="shape"/>
</filter>
<clipPath id="clip0_1_368">
<rect width="34.6" height="25.6" fill="white" transform="translate(19.4668 22.8)"/>
</clipPath>
</defs>
</svg>
