<svg width="72" height="72" viewBox="0 0 72 72" fill="none" xmlns="http://www.w3.org/2000/svg">
<rect x="0.5" y="0.5" width="71" height="71" rx="11.5" fill="#141414"/>
<rect x="0.5" y="0.5" width="71" height="71" rx="11.5" stroke="#1F1F1F"/>
<g clip-path="url(#clip0_1_380)">
<g filter="url(#filter0_b_1_380)">
<mask id="path-2-inside-1_1_380" fill="white">
<path fillRule="evenodd" clipRule="evenodd" d="M49.1372 22.2H36.1312H23.1374C21.8184 22.2 21.4521 22.5654 21.4521 23.8445V37.61C21.4521 38.8769 21.8307 39.2545 23.0763 39.2545H49.1372C50.3828 39.2545 50.7614 38.8769 50.7614 37.61V23.8445C50.7614 22.5776 50.3828 22.2 49.1372 22.2ZM19.376 49H36.0457H52.8497C53.1428 49 53.4603 48.9878 53.7412 48.8903C54.3884 48.671 54.5838 48.135 54.2541 47.5381C53.0942 45.4189 51.922 43.3119 50.7499 41.2049L50.7492 41.2036C50.4683 40.7163 50.0653 40.4727 49.5035 40.4727H22.6977C22.136 40.4727 21.733 40.7163 21.4643 41.2036L21.4643 41.2036C20.2919 43.3111 19.1195 45.4185 17.9594 47.5381C17.6297 48.135 17.8373 48.671 18.4845 48.8903C18.7532 48.9878 19.0707 49 19.376 49ZM36.8639 46.5663C36.6074 46.5649 36.351 46.5636 36.0945 46.5636C35.8385 46.5636 35.5825 46.5649 35.3261 46.5663C34.8118 46.569 34.2957 46.5717 33.7742 46.5636C32.9926 46.5514 32.4553 46.0641 32.4431 45.3698C32.4309 44.651 32.9804 44.1394 33.7986 44.1394C35.3374 44.1272 36.8883 44.1272 38.4271 44.1394C39.2086 44.1516 39.746 44.6389 39.7582 45.3332C39.7704 46.0398 39.2208 46.5514 38.4026 46.5636C37.8897 46.5717 37.3768 46.569 36.8639 46.5663Z"/>
</mask>
<path fillRule="evenodd" clipRule="evenodd" d="M49.1372 22.2H36.1312H23.1374C21.8184 22.2 21.4521 22.5654 21.4521 23.8445V37.61C21.4521 38.8769 21.8307 39.2545 23.0763 39.2545H49.1372C50.3828 39.2545 50.7614 38.8769 50.7614 37.61V23.8445C50.7614 22.5776 50.3828 22.2 49.1372 22.2ZM19.376 49H36.0457H52.8497C53.1428 49 53.4603 48.9878 53.7412 48.8903C54.3884 48.671 54.5838 48.135 54.2541 47.5381C53.0942 45.4189 51.922 43.3119 50.7499 41.2049L50.7492 41.2036C50.4683 40.7163 50.0653 40.4727 49.5035 40.4727H22.6977C22.136 40.4727 21.733 40.7163 21.4643 41.2036L21.4643 41.2036C20.2919 43.3111 19.1195 45.4185 17.9594 47.5381C17.6297 48.135 17.8373 48.671 18.4845 48.8903C18.7532 48.9878 19.0707 49 19.376 49ZM36.8639 46.5663C36.6074 46.5649 36.351 46.5636 36.0945 46.5636C35.8385 46.5636 35.5825 46.5649 35.3261 46.5663C34.8118 46.569 34.2957 46.5717 33.7742 46.5636C32.9926 46.5514 32.4553 46.0641 32.4431 45.3698C32.4309 44.651 32.9804 44.1394 33.7986 44.1394C35.3374 44.1272 36.8883 44.1272 38.4271 44.1394C39.2086 44.1516 39.746 44.6389 39.7582 45.3332C39.7704 46.0398 39.2208 46.5514 38.4026 46.5636C37.8897 46.5717 37.3768 46.569 36.8639 46.5663Z" fill="#E60000"/>
<path d="M53.7412 48.8903L53.4203 47.9432L53.4134 47.9456L53.7412 48.8903ZM54.2541 47.5381L53.3769 48.0183L53.3787 48.0217L54.2541 47.5381ZM50.7499 41.2049L51.6238 40.7187L51.6229 40.7172L50.7499 41.2049ZM50.7492 41.2036L51.6223 40.7159L51.6155 40.7042L50.7492 41.2036ZM21.4643 41.2036L22.3392 41.6879L22.34 41.6864L21.4643 41.2036ZM21.4643 41.2036L22.3382 41.6898L22.3392 41.6879L21.4643 41.2036ZM17.9594 47.5381L18.8347 48.0217L18.8366 48.0183L17.9594 47.5381ZM18.4845 48.8903L18.8255 47.9503L18.8155 47.9466L18.8054 47.9432L18.4845 48.8903ZM36.8639 46.5663L36.8586 47.5663L36.8586 47.5663L36.8639 46.5663ZM35.3261 46.5663L35.3208 45.5663L35.3208 45.5663L35.3261 46.5663ZM33.7742 46.5636L33.7898 45.5637L33.7898 45.5637L33.7742 46.5636ZM32.4431 45.3698L31.4432 45.3868L31.4432 45.3874L32.4431 45.3698ZM33.7986 44.1394V45.1394L33.8065 45.1394L33.7986 44.1394ZM38.4271 44.1394L38.4426 43.1395L38.435 43.1394L38.4271 44.1394ZM39.7582 45.3332L40.758 45.3159L40.758 45.3156L39.7582 45.3332ZM38.4026 46.5636L38.3877 45.5637L38.3868 45.5637L38.4026 46.5636ZM36.1312 23.2H49.1372V21.2H36.1312V23.2ZM23.1374 23.2H36.1312V21.2H23.1374V23.2ZM22.4521 23.8445C22.4521 23.5622 22.4735 23.3942 22.4985 23.2965C22.5206 23.2106 22.5339 23.2236 22.4999 23.2569C22.4673 23.2889 22.4596 23.272 22.5572 23.2479C22.6648 23.2214 22.8439 23.2 23.1374 23.2V21.2C22.4626 21.2 21.6663 21.2738 21.1003 21.8282C20.5273 22.3896 20.4521 23.1844 20.4521 23.8445H22.4521ZM22.4521 37.61V23.8445H20.4521V37.61H22.4521ZM23.0763 38.2545C22.806 38.2545 22.6443 38.2329 22.5505 38.2084C22.4676 38.1866 22.4774 38.1731 22.5076 38.2036C22.5372 38.2335 22.5219 38.2408 22.4991 38.1522C22.4738 38.0535 22.4521 37.8862 22.4521 37.61H20.4521C20.4521 38.2745 20.5344 39.0535 21.0866 39.611C21.642 40.1718 22.4199 40.2545 23.0763 40.2545V38.2545ZM49.1372 38.2545H23.0763V40.2545H49.1372V38.2545ZM49.7614 37.61C49.7614 37.8862 49.7397 38.0535 49.7143 38.1522C49.6915 38.2408 49.6763 38.2335 49.7059 38.2036C49.7361 38.1731 49.7459 38.1866 49.663 38.2084C49.5692 38.2329 49.4075 38.2545 49.1372 38.2545V40.2545C49.7936 40.2545 50.5715 40.1718 51.1269 39.611C51.6791 39.0535 51.7614 38.2745 51.7614 37.61H49.7614ZM49.7614 23.8445V37.61H51.7614V23.8445H49.7614ZM49.1372 23.2C49.4075 23.2 49.5692 23.2215 49.663 23.2461C49.7459 23.2678 49.7361 23.2813 49.7059 23.2508C49.6763 23.2209 49.6915 23.2137 49.7143 23.3023C49.7397 23.4009 49.7614 23.5683 49.7614 23.8445H51.7614C51.7614 23.18 51.6791 22.401 51.1269 21.8434C50.5715 21.2827 49.7936 21.2 49.1372 21.2V23.2ZM36.0457 48H19.376V50H36.0457V48ZM52.8497 48H36.0457V50H52.8497V48ZM53.4134 47.9456C53.3061 47.9828 53.1389 48 52.8497 48V50C53.1466 50 53.6145 49.9928 54.069 49.8351L53.4134 47.9456ZM53.3787 48.0217C53.4112 48.0803 53.4133 48.1064 53.4124 48.0996C53.4119 48.0958 53.4109 48.0843 53.4128 48.0666C53.4146 48.0486 53.4192 48.0273 53.4277 48.0046C53.4362 47.9819 53.4472 47.9619 53.4588 47.9455C53.4702 47.9294 53.4802 47.9196 53.4853 47.9152C53.495 47.9068 53.4807 47.9227 53.4203 47.9432L54.062 49.8374C54.5892 49.6588 55.0797 49.295 55.3003 48.7071C55.5189 48.1242 55.393 47.5317 55.1294 47.0546L53.3787 48.0217ZM49.876 41.691C51.0484 43.7985 52.2189 45.9026 53.3769 48.0183L55.1313 47.058C53.9694 44.9353 52.7956 42.8253 51.6238 40.7187L49.876 41.691ZM49.8761 41.6912L49.8768 41.6925L51.6229 40.7172L51.6222 40.7159L49.8761 41.6912ZM49.5035 41.4727C49.6351 41.4727 49.6945 41.4995 49.7228 41.5163C49.7529 41.5341 49.8108 41.5781 49.8828 41.703L51.6155 40.7042C51.4066 40.3418 51.1226 40.0204 50.7405 39.7946C50.3567 39.5676 49.9337 39.4727 49.5035 39.4727V41.4727ZM22.6977 41.4727H49.5035V39.4727H22.6977V41.4727ZM22.34 41.6864C22.4048 41.5689 22.4573 41.5297 22.4828 41.5146C22.5075 41.4998 22.5654 41.4727 22.6977 41.4727V39.4727C22.2683 39.4727 21.8438 39.5673 21.4594 39.7962C21.0758 40.0247 20.7925 40.351 20.5886 40.7207L22.34 41.6864ZM22.3392 41.6879L22.3392 41.6879L20.5894 40.7193L20.5894 40.7193L22.3392 41.6879ZM18.8366 48.0183C19.9948 45.9022 21.1655 43.7977 22.3381 41.6898L20.5904 40.7175C19.4183 42.8244 18.2443 44.9349 17.0822 47.058L18.8366 48.0183ZM18.8054 47.9432C18.744 47.9224 18.7273 47.9056 18.7344 47.9117C18.7382 47.9149 18.7471 47.9234 18.7578 47.9382C18.7686 47.9532 18.7793 47.9721 18.7878 47.9941C18.7964 48.0161 18.8012 48.0372 18.8034 48.0557C18.8055 48.0739 18.8046 48.0864 18.8039 48.0915C18.8028 48.1011 18.8037 48.0779 18.8347 48.0217L17.0841 47.0546C16.8167 47.5387 16.6974 48.1353 16.9233 48.7176C17.1492 49.2998 17.6397 49.6599 18.1636 49.8374L18.8054 47.9432ZM19.376 48C19.0666 48 18.9109 47.9812 18.8255 47.9503L18.1435 49.8304C18.5955 49.9943 19.0747 50 19.376 50V48ZM36.0945 47.5636C36.3479 47.5636 36.6017 47.5649 36.8586 47.5663L36.8692 45.5663C36.6132 45.565 36.3541 45.5636 36.0945 45.5636V47.5636ZM35.3313 47.5663C35.5882 47.5649 35.8416 47.5636 36.0945 47.5636V45.5636C35.8354 45.5636 35.5768 45.565 35.3208 45.5663L35.3313 47.5663ZM33.7586 47.5635C34.2923 47.5718 34.8187 47.569 35.3313 47.5663L35.3208 45.5663C34.8049 45.569 34.2992 45.5717 33.7898 45.5637L33.7586 47.5635ZM31.4432 45.3874C31.454 46.0022 31.7044 46.5638 32.1513 46.9659C32.591 47.3615 33.1645 47.5542 33.7586 47.5635L33.7898 45.5637C33.6023 45.5608 33.5164 45.5038 33.489 45.4791C33.4687 45.4609 33.4443 45.4317 33.4429 45.3522L31.4432 45.3874ZM33.7986 43.1394C33.1821 43.1394 32.5861 43.3342 32.1346 43.7471C31.6754 44.167 31.4325 44.754 31.4432 45.3868L33.4429 45.3528C33.4421 45.3039 33.4507 45.2756 33.4567 45.2615C33.4625 45.2476 33.4706 45.2355 33.4842 45.2231C33.509 45.2004 33.5969 45.1394 33.7986 45.1394V43.1394ZM38.435 43.1394C36.891 43.1272 35.3347 43.1272 33.7907 43.1394L33.8065 45.1394C35.34 45.1272 36.8857 45.1272 38.4191 45.1394L38.435 43.1394ZM40.758 45.3156C40.7472 44.7008 40.4969 44.1392 40.05 43.7371C39.6103 43.3415 39.0368 43.1488 38.4426 43.1395L38.4115 45.1393C38.5989 45.1422 38.6849 45.1992 38.7123 45.2239C38.7325 45.2421 38.7569 45.2713 38.7583 45.3508L40.758 45.3156ZM38.4175 47.5635C39.03 47.5544 39.6197 47.3555 40.0666 46.9468C40.5219 46.5305 40.769 45.9484 40.758 45.3159L38.7583 45.3505C38.7591 45.3938 38.7514 45.4187 38.746 45.4312C38.7407 45.4438 38.7325 45.4566 38.717 45.4708C38.6877 45.4976 38.5935 45.5606 38.3877 45.5637L38.4175 47.5635ZM36.8586 47.5663C37.3698 47.569 37.8932 47.5718 38.4185 47.5635L38.3868 45.5637C37.8862 45.5716 37.3838 45.569 36.8692 45.5663L36.8586 47.5663Z" fill="#E60000" mask="url(#path-2-inside-1_1_380)"/>
</g>
</g>
<defs>
<filter id="filter0_b_1_380" x="5.80469" y="10.2" width="60.6074" height="50.8" filterUnits="userSpaceOnUse" color-interpolation-filters="sRGB">
<feFlood flood-opacity="0" result="BackgroundImageFix"/>
<feGaussianBlur in="BackgroundImageFix" stdDeviation="6"/>
<feComposite in2="SourceAlpha" operator="in" result="effect1_backgroundBlur_1_380"/>
<feBlend mode="normal" in="SourceGraphic" in2="effect1_backgroundBlur_1_380" result="shape"/>
</filter>
<clipPath id="clip0_1_380">
<rect width="36.6" height="26.8" fill="white" transform="translate(17.8008 22.2)"/>
</clipPath>
</defs>
</svg>
