<svg width="73" height="72" viewBox="0 0 73 72" fill="none" xmlns="http://www.w3.org/2000/svg">
<rect x="0.833984" y="0.5" width="71" height="71" rx="11.5" fill="#141414"/>
<rect x="0.833984" y="0.5" width="71" height="71" rx="11.5" stroke="#1F1F1F"/>
<g clip-path="url(#clip0_1_390)">
<g filter="url(#filter0_b_1_390)">
<mask id="path-2-inside-1_1_390" fill="white">
<path fillRule="evenodd" clipRule="evenodd" d="M35.3462 26.6882H37.7191C37.7191 26.3159 37.7218 25.9517 37.7245 25.5926C37.7298 24.8887 37.7349 24.204 37.7191 23.514C37.6951 22.8911 37.1918 22.436 36.5926 22.4C35.9934 22.3761 35.3942 22.7953 35.3582 23.3942C35.3247 24.1557 35.3322 24.9173 35.3397 25.6869C35.343 26.019 35.3462 26.3525 35.3462 26.6882ZM19.2282 38.3833C18.8556 39.6246 18.4839 40.8627 18.5327 42.1881C18.5327 42.2679 18.5313 42.3478 18.53 42.4276C18.5273 42.5873 18.5247 42.747 18.5327 42.9067C18.7963 47.0752 22.763 49.7703 26.7297 48.4527C28.4914 47.8657 29.7497 46.6799 30.4807 44.979C31.1518 43.4338 32.2304 42.2959 33.8123 41.7329C35.4182 41.1579 37.0839 41.1699 38.7138 41.5652C40.4994 42.0084 41.6498 43.2182 42.3929 44.8832C43.6272 47.6741 46.7191 49.2672 49.5593 48.6084C52.9747 47.8178 55.2277 44.2363 54.3289 40.8465C53.55 37.8759 52.7111 34.9292 51.7763 32.0066C50.3143 27.4309 44.4301 25.5982 40.8469 28.8802C40.7031 29.012 40.4514 29.0959 40.2597 29.0959C37.7431 29.1078 35.2264 29.1078 32.7098 29.0959C32.4941 29.0959 32.2304 29.012 32.0746 28.8683C28.3955 25.5383 22.3795 27.4908 21.0134 32.2461C20.8845 32.6863 20.755 33.1265 20.6254 33.5667C20.2366 34.8873 19.8479 36.2079 19.4794 37.5285C19.399 37.8143 19.3136 38.0989 19.2282 38.3833ZM43.4325 36.2172C43.5662 36.0877 43.7124 35.9461 43.8789 35.7797C43.7512 35.6663 43.6292 35.5641 43.5135 35.4672C43.3359 35.3184 43.1731 35.1821 43.028 35.0371C42.4168 34.4262 42.3809 33.7075 42.8962 33.1924C43.4115 32.6773 44.1305 32.7372 44.7417 33.3481C44.9409 33.5472 45.1325 33.7537 45.3642 34.0034C45.4253 34.0692 45.4891 34.1381 45.5566 34.2106C45.6525 34.1041 45.7431 34.0008 45.831 33.9006C46.0396 33.6627 46.2326 33.4426 46.4435 33.2403C46.9827 32.7253 47.6778 32.7133 48.1572 33.1804C48.6605 33.6715 48.6485 34.3902 48.1212 34.9412C47.9201 35.151 47.6998 35.3417 47.4371 35.5691C47.3398 35.6533 47.2367 35.7425 47.1265 35.8396C47.2766 35.9799 47.4188 36.1045 47.554 36.223C47.7535 36.398 47.9378 36.5594 48.1092 36.738C48.6485 37.3009 48.6485 38.0196 48.1572 38.4988C47.6538 38.9899 46.9588 38.9659 46.4075 38.4149C46.2287 38.2284 46.065 38.0268 45.8838 37.8035C45.7856 37.6826 45.6823 37.5554 45.5686 37.4207C45.4277 37.5704 45.3045 37.7055 45.1909 37.8302C44.9953 38.0449 44.8278 38.2287 44.6459 38.4029C44.0706 38.9539 43.3875 38.9899 42.8842 38.4988C42.3689 37.9957 42.3929 37.277 42.9561 36.69C43.1053 36.5342 43.2583 36.3859 43.4325 36.2172ZM26.4966 34.6509C26.636 34.6523 26.7804 34.6538 26.9335 34.6538C26.9335 34.531 26.9326 34.4165 26.9319 34.3078C26.9297 34.0032 26.9278 33.7448 26.9455 33.4799C26.9694 32.7612 27.4727 32.2461 28.1439 32.2581C28.803 32.2581 29.3063 32.7732 29.3303 33.5038C29.3381 33.7386 29.3357 33.9734 29.3331 34.2282C29.3317 34.3634 29.3303 34.5043 29.3303 34.6538C29.4689 34.6538 29.6033 34.6524 29.735 34.651C29.9905 34.6484 30.2356 34.6458 30.4807 34.6538C31.1998 34.6777 31.7151 35.1808 31.7151 35.8396C31.7151 36.5104 31.1998 37.0135 30.4807 37.0374C30.2477 37.0452 30.0197 37.0429 29.7641 37.0403C29.6253 37.0389 29.4785 37.0374 29.3183 37.0374C29.3183 37.1729 29.3197 37.3028 29.3211 37.429C29.3237 37.6709 29.3262 37.8992 29.3183 38.1274C29.3063 38.906 28.8389 39.4211 28.1439 39.4331C27.4368 39.445 26.9455 38.918 26.9335 38.1035V37.0374C26.7799 37.0374 26.635 37.0389 26.4957 37.0402C26.2328 37.0428 25.9899 37.0452 25.7471 37.0374C25.052 37.0015 24.5486 36.5104 24.5367 35.8755C24.5127 35.2167 25.016 34.6897 25.7351 34.6538C25.9862 34.6459 26.2322 34.6483 26.4966 34.6509Z"/>
</mask>
<path fillRule="evenodd" clipRule="evenodd" d="M35.3462 26.6882H37.7191C37.7191 26.3159 37.7218 25.9517 37.7245 25.5926C37.7298 24.8887 37.7349 24.204 37.7191 23.514C37.6951 22.8911 37.1918 22.436 36.5926 22.4C35.9934 22.3761 35.3942 22.7953 35.3582 23.3942C35.3247 24.1557 35.3322 24.9173 35.3397 25.6869C35.343 26.019 35.3462 26.3525 35.3462 26.6882ZM19.2282 38.3833C18.8556 39.6246 18.4839 40.8627 18.5327 42.1881C18.5327 42.2679 18.5313 42.3478 18.53 42.4276C18.5273 42.5873 18.5247 42.747 18.5327 42.9067C18.7963 47.0752 22.763 49.7703 26.7297 48.4527C28.4914 47.8657 29.7497 46.6799 30.4807 44.979C31.1518 43.4338 32.2304 42.2959 33.8123 41.7329C35.4182 41.1579 37.0839 41.1699 38.7138 41.5652C40.4994 42.0084 41.6498 43.2182 42.3929 44.8832C43.6272 47.6741 46.7191 49.2672 49.5593 48.6084C52.9747 47.8178 55.2277 44.2363 54.3289 40.8465C53.55 37.8759 52.7111 34.9292 51.7763 32.0066C50.3143 27.4309 44.4301 25.5982 40.8469 28.8802C40.7031 29.012 40.4514 29.0959 40.2597 29.0959C37.7431 29.1078 35.2264 29.1078 32.7098 29.0959C32.4941 29.0959 32.2304 29.012 32.0746 28.8683C28.3955 25.5383 22.3795 27.4908 21.0134 32.2461C20.8845 32.6863 20.755 33.1265 20.6254 33.5667C20.2366 34.8873 19.8479 36.2079 19.4794 37.5285C19.399 37.8143 19.3136 38.0989 19.2282 38.3833ZM43.4325 36.2172C43.5662 36.0877 43.7124 35.9461 43.8789 35.7797C43.7512 35.6663 43.6292 35.5641 43.5135 35.4672C43.3359 35.3184 43.1731 35.1821 43.028 35.0371C42.4168 34.4262 42.3809 33.7075 42.8962 33.1924C43.4115 32.6773 44.1305 32.7372 44.7417 33.3481C44.9409 33.5472 45.1325 33.7537 45.3642 34.0034C45.4253 34.0692 45.4891 34.1381 45.5566 34.2106C45.6525 34.1041 45.7431 34.0008 45.831 33.9006C46.0396 33.6627 46.2326 33.4426 46.4435 33.2403C46.9827 32.7253 47.6778 32.7133 48.1572 33.1804C48.6605 33.6715 48.6485 34.3902 48.1212 34.9412C47.9201 35.151 47.6998 35.3417 47.4371 35.5691C47.3398 35.6533 47.2367 35.7425 47.1265 35.8396C47.2766 35.9799 47.4188 36.1045 47.554 36.223C47.7535 36.398 47.9378 36.5594 48.1092 36.738C48.6485 37.3009 48.6485 38.0196 48.1572 38.4988C47.6538 38.9899 46.9588 38.9659 46.4075 38.4149C46.2287 38.2284 46.065 38.0268 45.8838 37.8035C45.7856 37.6826 45.6823 37.5554 45.5686 37.4207C45.4277 37.5704 45.3045 37.7055 45.1909 37.8302C44.9953 38.0449 44.8278 38.2287 44.6459 38.4029C44.0706 38.9539 43.3875 38.9899 42.8842 38.4988C42.3689 37.9957 42.3929 37.277 42.9561 36.69C43.1053 36.5342 43.2583 36.3859 43.4325 36.2172ZM26.4966 34.6509C26.636 34.6523 26.7804 34.6538 26.9335 34.6538C26.9335 34.531 26.9326 34.4165 26.9319 34.3078C26.9297 34.0032 26.9278 33.7448 26.9455 33.4799C26.9694 32.7612 27.4727 32.2461 28.1439 32.2581C28.803 32.2581 29.3063 32.7732 29.3303 33.5038C29.3381 33.7386 29.3357 33.9734 29.3331 34.2282C29.3317 34.3634 29.3303 34.5043 29.3303 34.6538C29.4689 34.6538 29.6033 34.6524 29.735 34.651C29.9905 34.6484 30.2356 34.6458 30.4807 34.6538C31.1998 34.6777 31.7151 35.1808 31.7151 35.8396C31.7151 36.5104 31.1998 37.0135 30.4807 37.0374C30.2477 37.0452 30.0197 37.0429 29.7641 37.0403C29.6253 37.0389 29.4785 37.0374 29.3183 37.0374C29.3183 37.1729 29.3197 37.3028 29.3211 37.429C29.3237 37.6709 29.3262 37.8992 29.3183 38.1274C29.3063 38.906 28.8389 39.4211 28.1439 39.4331C27.4368 39.445 26.9455 38.918 26.9335 38.1035V37.0374C26.7799 37.0374 26.635 37.0389 26.4957 37.0402C26.2328 37.0428 25.9899 37.0452 25.7471 37.0374C25.052 37.0015 24.5486 36.5104 24.5367 35.8755C24.5127 35.2167 25.016 34.6897 25.7351 34.6538C25.9862 34.6459 26.2322 34.6483 26.4966 34.6509Z" fill="#E60000"/>
<path d="M37.7191 26.6882V27.6882H38.7191V26.6882H37.7191ZM35.3462 26.6882H34.3462V27.6882H35.3462V26.6882ZM37.7245 25.5926L36.7245 25.5851L36.7245 25.5851L37.7245 25.5926ZM37.7191 23.514L38.7188 23.491L38.7186 23.4833L38.7183 23.4755L37.7191 23.514ZM36.5926 22.4L36.6524 21.4018L36.6425 21.4012L36.6325 21.4008L36.5926 22.4ZM35.3582 23.3942L34.36 23.3343L34.3595 23.3423L34.3592 23.3503L35.3582 23.3942ZM35.3397 25.6869L36.3397 25.6772L36.3397 25.6772L35.3397 25.6869ZM18.5327 42.1881H19.5327V42.1697L19.532 42.1513L18.5327 42.1881ZM19.2282 38.3833L20.186 38.6708L20.186 38.6708L19.2282 38.3833ZM18.53 42.4276L17.5301 42.4109L17.5301 42.4109L18.53 42.4276ZM18.5327 42.9067L17.5338 42.9567L17.5347 42.9699L18.5327 42.9067ZM26.7297 48.4527L27.045 49.4017L27.0458 49.4014L26.7297 48.4527ZM30.4807 44.979L29.5635 44.5806L29.562 44.5841L30.4807 44.979ZM33.8123 41.7329L34.1476 42.675L34.1494 42.6744L33.8123 41.7329ZM38.7138 41.5652L38.9547 40.5946L38.9495 40.5934L38.7138 41.5652ZM42.3929 44.8832L43.3074 44.4787L43.3061 44.4756L42.3929 44.8832ZM49.5593 48.6084L49.3338 47.6341L49.3333 47.6342L49.5593 48.6084ZM54.3289 40.8465L53.3616 41.1001L53.3623 41.1028L54.3289 40.8465ZM51.7763 32.0066L50.8238 32.3109L50.8239 32.3112L51.7763 32.0066ZM40.8469 28.8802L40.1715 28.1428L40.1714 28.1429L40.8469 28.8802ZM40.2597 29.0959L40.2597 28.0958L40.2549 28.0959L40.2597 29.0959ZM32.7098 29.0959L32.7145 28.0959H32.7098V29.0959ZM32.0746 28.8683L32.7527 28.1333L32.7457 28.1269L32.0746 28.8683ZM21.0134 32.2461L21.9731 32.527L21.9745 32.5223L21.0134 32.2461ZM20.6254 33.5667L19.6661 33.2844L19.6661 33.2844L20.6254 33.5667ZM19.4794 37.5285L20.442 37.7994L20.4426 37.7973L19.4794 37.5285ZM43.8789 35.7797L44.5858 36.487L45.3363 35.7369L44.5431 35.0321L43.8789 35.7797ZM43.4325 36.2172L42.7368 35.4989L42.7368 35.4989L43.4325 36.2172ZM43.5135 35.4672L44.1556 34.7006L44.1556 34.7006L43.5135 35.4672ZM43.028 35.0371L43.7349 34.3298L43.7349 34.3298L43.028 35.0371ZM42.8962 33.1924L42.1893 32.4851L42.1893 32.4851L42.8962 33.1924ZM44.7417 33.3481L45.4487 32.6408L45.4487 32.6408L44.7417 33.3481ZM45.3642 34.0034L46.0972 33.3232L46.0972 33.3232L45.3642 34.0034ZM45.5566 34.2106L44.8249 34.8922L45.5691 35.6911L46.2998 34.8797L45.5566 34.2106ZM45.831 33.9006L45.0791 33.2413L45.0791 33.2413L45.831 33.9006ZM46.4435 33.2403L45.7528 32.5172L45.7511 32.5188L46.4435 33.2403ZM48.1572 33.1804L48.8555 32.4647L48.8551 32.4643L48.1572 33.1804ZM48.1212 34.9412L48.843 35.6333L48.8437 35.6326L48.1212 34.9412ZM47.4371 35.5691L46.7826 34.8129L46.7826 34.8129L47.4371 35.5691ZM47.1265 35.8396L46.4651 35.0896L45.6392 35.818L46.4436 36.57L47.1265 35.8396ZM47.554 36.223L48.2131 35.471L48.2131 35.471L47.554 36.223ZM48.1092 36.738L48.8314 36.0462L48.8305 36.0453L48.1092 36.738ZM48.1572 38.4988L47.459 37.7828L47.4588 37.783L48.1572 38.4988ZM46.4075 38.4149L45.6857 39.107L45.693 39.1147L45.7006 39.1222L46.4075 38.4149ZM45.8838 37.8035L45.1074 38.4338L45.1074 38.4338L45.8838 37.8035ZM45.5686 37.4207L46.3328 36.7757L45.6094 35.9187L44.8406 36.7352L45.5686 37.4207ZM45.1909 37.8302L45.93 38.5038L45.93 38.5038L45.1909 37.8302ZM44.6459 38.4029L43.9541 37.6808L43.9541 37.6808L44.6459 38.4029ZM42.8842 38.4988L42.1856 39.2143L42.1858 39.2145L42.8842 38.4988ZM42.9561 36.69L43.6776 37.3824L43.6786 37.3814L42.9561 36.69ZM26.9335 34.6538V35.6538H27.9335V34.6538H26.9335ZM26.4966 34.6509L26.4867 35.6509L26.4867 35.6509L26.4966 34.6509ZM26.9319 34.3078L27.9318 34.3006L27.9318 34.3006L26.9319 34.3078ZM26.9455 33.4799L27.9432 33.5464L27.9443 33.5298L27.9449 33.5132L26.9455 33.4799ZM28.1439 32.2581L28.126 33.2579L28.1349 33.2581H28.1439V32.2581ZM29.3303 33.5038L28.3308 33.5366L28.3308 33.5372L29.3303 33.5038ZM29.3331 34.2282L30.333 34.2384L30.333 34.2384L29.3331 34.2282ZM29.3303 34.6538H28.3303V35.6538H29.3303V34.6538ZM29.735 34.651L29.7453 35.651L29.7453 35.651L29.735 34.651ZM30.4807 34.6538L30.514 33.6543L30.513 33.6543L30.4807 34.6538ZM30.4807 37.0374L30.4474 36.038L30.4474 36.038L30.4807 37.0374ZM29.7641 37.0403L29.7742 36.0403L29.7742 36.0403L29.7641 37.0403ZM29.3183 37.0374V36.0374H28.3183V37.0374H29.3183ZM29.3211 37.429L30.321 37.4182L30.321 37.4182L29.3211 37.429ZM29.3183 38.1274L28.3189 38.093L28.3186 38.1025L28.3184 38.112L29.3183 38.1274ZM28.1439 39.4331L28.1608 40.4329L28.1611 40.4329L28.1439 39.4331ZM26.9335 38.1035H25.9335V38.1108L25.9336 38.1182L26.9335 38.1035ZM26.9335 37.0374H27.9335V36.0374H26.9335V37.0374ZM26.4957 37.0402L26.5056 38.0402L26.5056 38.0402L26.4957 37.0402ZM25.7471 37.0374L25.6954 38.0361L25.7051 38.0366L25.7148 38.0369L25.7471 37.0374ZM24.5367 35.8755L25.5365 35.8567L25.5363 35.8479L25.536 35.8392L24.5367 35.8755ZM25.7351 34.6538L25.7038 33.6542L25.6945 33.6545L25.6852 33.655L25.7351 34.6538ZM37.7191 25.6882H35.3462V27.6882H37.7191V25.6882ZM36.7245 25.5851C36.7218 25.9437 36.7191 26.3115 36.7191 26.6882H38.7191C38.7191 26.3202 38.7218 25.9598 38.7245 25.6001L36.7245 25.5851ZM36.7193 23.537C36.7348 24.2092 36.7299 24.8787 36.7245 25.5851L38.7245 25.6001C38.7298 24.8988 38.7351 24.1988 38.7188 23.491L36.7193 23.537ZM36.5327 23.3982C36.5978 23.4021 36.6479 23.4283 36.678 23.4573C36.704 23.4823 36.7182 23.5108 36.7198 23.5525L38.7183 23.4755C38.6726 22.2863 37.7108 21.4653 36.6524 21.4018L36.5327 23.3982ZM36.3564 23.4541C36.3557 23.4667 36.3514 23.477 36.3496 23.4802C36.3489 23.4813 36.3547 23.471 36.3747 23.4555C36.3948 23.44 36.4233 23.4242 36.4578 23.4131C36.4921 23.4021 36.525 23.3981 36.5526 23.3992L36.6325 21.4008C35.6419 21.3612 34.437 22.0512 34.36 23.3343L36.3564 23.4541ZM36.3397 25.6772C36.3321 24.9029 36.3251 24.1683 36.3573 23.4382L34.3592 23.3503C34.3243 24.1431 34.3323 24.9316 34.3398 25.6967L36.3397 25.6772ZM36.3462 26.6882C36.3462 26.3468 36.3429 26.0084 36.3397 25.6772L34.3398 25.6967C34.343 26.0295 34.3462 26.3582 34.3462 26.6882H36.3462ZM19.532 42.1513C19.4903 41.0182 19.8057 39.9376 20.186 38.6708L18.2704 38.0958C17.9055 39.3115 17.4775 40.7072 17.5333 42.2248L19.532 42.1513ZM19.5299 42.4443C19.5312 42.3658 19.5327 42.2776 19.5327 42.1881H17.5327C17.5327 42.2582 17.5315 42.3297 17.5301 42.4109L19.5299 42.4443ZM19.5314 42.8568C19.5254 42.7359 19.5271 42.6095 19.5299 42.4443L17.5301 42.4109C17.5276 42.5651 17.524 42.7582 17.5339 42.9567L19.5314 42.8568ZM26.4145 47.5036C23.0743 48.6132 19.7532 46.362 19.5307 42.8436L17.5347 42.9699C17.8394 47.7884 22.4518 50.9274 27.045 49.4017L26.4145 47.5036ZM29.562 44.5841C28.9402 46.031 27.8963 47.0099 26.4137 47.5039L27.0458 49.4014C29.0864 48.7215 30.5593 47.3288 31.3995 45.3738L29.562 44.5841ZM33.477 40.7908C31.5934 41.4611 30.3264 42.8241 29.5635 44.5806L31.398 45.3773C31.9773 44.0434 32.8675 43.1306 34.1476 42.675L33.477 40.7908ZM38.9495 40.5934C37.1713 40.1621 35.3014 40.1376 33.4752 40.7914L34.1494 42.6744C35.5349 42.1783 36.9966 42.1777 38.4781 42.537L38.9495 40.5934ZM43.3061 44.4756C42.4733 42.6096 41.115 41.1308 38.9547 40.5946L38.4729 42.5357C39.8837 42.8859 40.8264 43.8267 41.4797 45.2907L43.3061 44.4756ZM49.3333 47.6342C46.9859 48.1787 44.3582 46.8546 43.3074 44.4787L41.4783 45.2876C42.8962 48.4935 46.4523 50.3556 49.7853 49.5825L49.3333 47.6342ZM53.3623 41.1028C54.1104 43.9242 52.2221 46.9656 49.3338 47.6341L49.7848 49.5826C53.7274 48.67 56.3451 44.5485 55.2955 40.5902L53.3623 41.1028ZM50.8239 32.3112C51.7521 35.2136 52.5862 38.1428 53.3616 41.1001L55.2962 40.5928C54.5138 37.609 53.67 34.6449 52.7288 31.7019L50.8239 32.3112ZM41.5224 29.6177C44.519 26.8729 49.5635 28.3666 50.8238 32.3109L52.7289 31.7022C51.0651 26.4951 44.3413 24.3235 40.1715 28.1428L41.5224 29.6177ZM40.2597 30.0959C40.6601 30.0959 41.1658 29.9444 41.5225 29.6176L40.1714 28.1429C40.2018 28.1151 40.224 28.102 40.2304 28.0984C40.2378 28.0942 40.2393 28.0942 40.2351 28.0957C40.2335 28.0962 40.2317 28.0968 40.2299 28.0973C40.2282 28.0978 40.2273 28.0979 40.2275 28.0979C40.2277 28.0979 40.23 28.0974 40.2346 28.097C40.2392 28.0965 40.2476 28.0959 40.2597 28.0959V30.0959ZM32.705 30.0958C35.2248 30.1078 37.7446 30.1078 40.2645 30.0958L40.2549 28.0959C37.7415 28.1078 35.228 28.1078 32.7145 28.0959L32.705 30.0958ZM31.3965 29.6032C31.776 29.9534 32.3014 30.0959 32.7098 30.0959V28.0959C32.7193 28.0959 32.7205 28.0966 32.7146 28.0956C32.7091 28.0946 32.7026 28.093 32.6971 28.0911C32.6914 28.0891 32.6921 28.0887 32.6989 28.0925C32.705 28.096 32.7252 28.108 32.7527 28.1333L31.3965 29.6032ZM21.9745 32.5223C23.1538 28.4175 28.3192 26.818 31.4036 29.6097L32.7457 28.1269C28.4719 24.2587 21.6053 26.5641 20.0522 31.97L21.9745 32.5223ZM21.5847 33.8491C21.7142 33.409 21.844 32.9681 21.9731 32.527L20.0536 31.9652C19.925 32.4046 19.7957 32.844 19.6661 33.2844L21.5847 33.8491ZM20.4426 37.7973C20.8089 36.4847 21.1956 35.1709 21.5847 33.8491L19.6661 33.2844C19.2777 34.6038 18.8869 35.9312 18.5162 37.2597L20.4426 37.7973ZM20.186 38.6708C20.2709 38.3878 20.3589 38.0949 20.442 37.7994L18.5168 37.2577C18.4391 37.5337 18.3562 37.81 18.2704 38.0958L20.186 38.6708ZM43.1719 35.0724C43.0117 35.2326 42.8707 35.3692 42.7368 35.4989L44.1283 36.9355C44.2618 36.8062 44.4131 36.6596 44.5858 36.487L43.1719 35.0724ZM42.8714 36.2338C42.9882 36.3317 43.0995 36.425 43.2147 36.5273L44.5431 35.0321C44.403 34.9077 44.2702 34.7965 44.1556 34.7006L42.8714 36.2338ZM42.3211 35.7443C42.503 35.9262 42.701 36.0911 42.8714 36.2338L44.1556 34.7006C43.9707 34.5457 43.8433 34.4381 43.7349 34.3298L42.3211 35.7443ZM42.1893 32.4851C41.7482 32.926 41.5002 33.5088 41.5418 34.1441C41.5822 34.762 41.8875 35.311 42.3211 35.7443L43.7349 34.3298C43.5573 34.1523 43.539 34.0364 43.5375 34.0135C43.5367 34.0012 43.5381 33.9929 43.5423 33.9824C43.547 33.9707 43.5613 33.9415 43.6031 33.8997L42.1893 32.4851ZM45.4487 32.6408C45.0215 32.2138 44.4796 31.9031 43.8668 31.8515C43.2308 31.7981 42.6388 32.0358 42.1893 32.4851L43.6031 33.8997C43.6419 33.8609 43.6669 33.85 43.6739 33.8473C43.6798 33.845 43.6859 33.8434 43.6992 33.8445C43.7275 33.8469 43.8508 33.8715 44.0348 34.0554L45.4487 32.6408ZM46.0972 33.3232C45.8684 33.0766 45.6636 32.8556 45.4487 32.6408L44.0348 34.0554C44.2182 34.2387 44.3967 34.4309 44.6311 34.6836L46.0972 33.3232ZM46.2884 33.529C46.2216 33.4573 46.1584 33.3892 46.0972 33.3232L44.6311 34.6835C44.6921 34.7493 44.7566 34.8188 44.8249 34.8922L46.2884 33.529ZM45.0791 33.2413C44.9907 33.342 44.9043 33.4406 44.8135 33.5414L46.2998 34.8797C46.4007 34.7676 46.4955 34.6595 46.5828 34.56L45.0791 33.2413ZM45.7511 32.5188C45.5038 32.7561 45.2824 33.0095 45.0791 33.2413L46.5828 34.56C46.7968 34.316 46.9615 34.1292 47.1358 33.9619L45.7511 32.5188ZM48.8551 32.4643C48.4317 32.0516 47.8792 31.825 47.293 31.8425C46.7124 31.8598 46.1759 32.113 45.7528 32.5172L47.1341 33.9635C47.2502 33.8526 47.331 33.8422 47.3526 33.8416C47.3685 33.8411 47.4033 33.8421 47.4592 33.8966L48.8551 32.4643ZM48.8437 35.6326C49.2556 35.2022 49.514 34.6528 49.5255 34.0577C49.5371 33.4553 49.2929 32.8914 48.8555 32.4647L47.4588 33.8962C47.5248 33.9605 47.5262 34.0015 47.5259 34.019C47.5254 34.0438 47.5142 34.1292 47.3987 34.2498L48.8437 35.6326ZM48.0915 36.3252C48.3466 36.1044 48.6038 35.8828 48.843 35.6333L47.3994 34.2491C47.2363 34.4192 47.053 34.579 46.7826 34.8129L48.0915 36.3252ZM47.788 36.5896C47.8941 36.496 47.9938 36.4097 48.0915 36.3252L46.7826 34.8129C46.6857 34.8968 46.5792 34.989 46.4651 35.0896L47.788 36.5896ZM48.2131 35.471C48.0769 35.3516 47.9462 35.2369 47.8095 35.1092L46.4436 36.57C46.607 36.7228 46.7607 36.8575 46.8948 36.975L48.2131 35.471ZM48.8305 36.0453C48.6242 35.8305 48.4069 35.6408 48.2131 35.471L46.8948 36.975C47.1002 37.1551 47.2514 37.2884 47.388 37.4307L48.8305 36.0453ZM48.8553 39.2147C49.2877 38.7931 49.5311 38.2318 49.5195 37.6305C49.508 37.0349 49.2492 36.4824 48.8314 36.0462L47.3871 37.4297C47.5086 37.5565 47.5194 37.6448 47.5199 37.6691C47.5202 37.6877 47.518 37.7253 47.459 37.7828L48.8553 39.2147ZM45.7006 39.1222C46.1195 39.5409 46.6575 39.8202 47.2563 39.8467C47.8638 39.8734 48.4256 39.634 48.8555 39.2145L47.4588 37.783C47.4188 37.8221 47.3894 37.8371 47.3755 37.8427C47.3623 37.848 47.3533 37.849 47.3444 37.8486C47.332 37.848 47.2468 37.8399 47.1144 37.7076L45.7006 39.1222ZM45.1074 38.4338C45.2835 38.6508 45.4733 38.8855 45.6857 39.107L47.1293 37.7228C46.9841 37.5714 46.8465 37.4029 46.6601 37.1732L45.1074 38.4338ZM44.8045 38.0658C44.9111 38.192 45.0086 38.3122 45.1074 38.4338L46.6601 37.1732C46.5626 37.0531 46.4535 36.9187 46.3328 36.7757L44.8045 38.0658ZM45.93 38.5038C46.044 38.3787 46.162 38.2492 46.2967 38.1063L44.8406 36.7352C44.6933 36.8915 44.5651 37.0323 44.4518 37.1567L45.93 38.5038ZM45.3376 39.1251C45.5483 38.9232 45.7389 38.7135 45.93 38.5038L44.4518 37.1567C44.2516 37.3763 44.1072 37.5342 43.9541 37.6808L45.3376 39.1251ZM42.1858 39.2145C42.6183 39.6364 43.1811 39.8731 43.7919 39.8402C44.3872 39.8081 44.918 39.527 45.3376 39.1251L43.9541 37.6808C43.7985 37.8299 43.7001 37.8422 43.6842 37.8431C43.6753 37.8436 43.669 37.8426 43.6599 37.839C43.6497 37.835 43.6225 37.8219 43.5826 37.783L42.1858 39.2145ZM42.2346 35.9976C41.8185 36.4312 41.5394 36.9808 41.5164 37.5879C41.4929 38.2082 41.742 38.7812 42.1856 39.2143L43.5828 37.7832C43.5426 37.744 43.5275 37.7152 43.5218 37.7016C43.5164 37.6887 43.5144 37.6776 43.515 37.6638C43.5159 37.6391 43.5305 37.5358 43.6776 37.3824L42.2346 35.9976ZM42.7368 35.4989C42.5652 35.6651 42.3982 35.8267 42.2336 35.9987L43.6786 37.3814C43.8124 37.2416 43.9515 37.1067 44.1283 36.9355L42.7368 35.4989ZM26.9335 33.6538C26.7861 33.6538 26.6464 33.6524 26.5065 33.651L26.4867 35.6509C26.6255 35.6523 26.7748 35.6538 26.9335 35.6538V33.6538ZM25.9319 34.315C25.9327 34.424 25.9335 34.5351 25.9335 34.6538H27.9335C27.9335 34.5268 27.9326 34.4089 27.9318 34.3006L25.9319 34.315ZM25.9477 33.4133C25.9271 33.7215 25.9297 34.0174 25.9319 34.3151L27.9318 34.3006C27.9296 33.9889 27.9285 33.7681 27.9432 33.5464L25.9477 33.4133ZM28.1617 31.2583C26.8787 31.2354 25.9859 32.2501 25.946 33.4466L27.9449 33.5132C27.9493 33.3808 27.9941 33.3174 28.0163 33.2948C28.0346 33.2762 28.0625 33.2568 28.126 33.2579L28.1617 31.2583ZM30.3297 33.4711C30.2904 32.271 29.4098 31.2581 28.1439 31.2581V33.2581C28.2018 33.2581 28.2316 33.2763 28.2537 33.2994C28.2788 33.3255 28.3262 33.3949 28.3308 33.5366L30.3297 33.4711ZM30.333 34.2384C30.3356 33.9877 30.3384 33.7308 30.3297 33.4705L28.3308 33.5372C28.3378 33.7464 28.3358 33.9591 28.3331 34.218L30.333 34.2384ZM30.3303 34.6538C30.3303 34.5101 30.3317 34.3742 30.333 34.2384L28.3331 34.218C28.3318 34.3526 28.3303 34.4984 28.3303 34.6538H30.3303ZM29.7247 33.6511C29.5923 33.6524 29.4629 33.6538 29.3303 33.6538V35.6538C29.4748 35.6538 29.6143 35.6523 29.7453 35.651L29.7247 33.6511ZM30.513 33.6543C30.2429 33.6456 29.9764 33.6485 29.7247 33.6511L29.7453 35.651C30.0045 35.6483 30.2282 35.6461 30.4485 35.6532L30.513 33.6543ZM32.7151 35.8396C32.7151 34.579 31.7074 33.6941 30.514 33.6543L30.4474 35.6532C30.5798 35.6576 30.6465 35.7025 30.673 35.7281C30.6967 35.7509 30.7151 35.7817 30.7151 35.8396H32.7151ZM30.514 38.0369C31.7141 37.9969 32.7151 37.1059 32.7151 35.8396H30.7151C30.7151 35.9083 30.6931 35.9421 30.6705 35.964C30.6449 35.9889 30.5796 36.0336 30.4474 36.038L30.514 38.0369ZM29.754 38.0402C30.0057 38.0428 30.2556 38.0455 30.514 38.0369L30.4474 36.038C30.2398 36.0449 30.0337 36.043 29.7742 36.0403L29.754 38.0402ZM29.3183 38.0374C29.4727 38.0374 29.6148 38.0388 29.754 38.0402L29.7742 36.0403C29.6359 36.039 29.4842 36.0374 29.3183 36.0374V38.0374ZM30.321 37.4182C30.3196 37.2913 30.3183 37.1667 30.3183 37.0374H28.3183C28.3183 37.1792 28.3198 37.3144 28.3211 37.4398L30.321 37.4182ZM30.3177 38.1619C30.3265 37.9071 30.3236 37.6559 30.321 37.4182L28.3211 37.4398C28.3238 37.6858 28.3258 37.8912 28.3189 38.093L30.3177 38.1619ZM28.1611 40.4329C28.7651 40.4225 29.3256 40.1857 29.7299 39.7374C30.1263 39.2978 30.3092 38.7269 30.3182 38.1428L28.3184 38.112C28.3154 38.3066 28.2586 38.3825 28.2446 38.398C28.2365 38.407 28.2287 38.4127 28.2174 38.4176C28.2056 38.4228 28.1778 38.4323 28.1266 38.4332L28.1611 40.4329ZM25.9336 38.1182C25.9424 38.7205 26.1315 39.3074 26.5408 39.7539C26.9592 40.2104 27.5398 40.4434 28.1608 40.4329L28.1269 38.4332C28.0776 38.434 28.0516 38.4255 28.0414 38.4213C28.0318 38.4173 28.0241 38.4123 28.0152 38.4025C27.9991 38.3849 27.9365 38.301 27.9334 38.0888L25.9336 38.1182ZM25.9335 37.0374V38.1035H27.9335V37.0374H25.9335ZM26.5056 38.0402C26.6455 38.0388 26.7856 38.0374 26.9335 38.0374V36.0374C26.7742 36.0374 26.6245 36.0389 26.4858 36.0403L26.5056 38.0402ZM25.7148 38.0369C25.9824 38.0455 26.2466 38.0428 26.5056 38.0402L26.4858 36.0403C26.2189 36.0429 25.9974 36.045 25.7793 36.0379L25.7148 38.0369ZM23.5368 35.8944C23.5599 37.1156 24.5399 37.9763 25.6954 38.0361L25.7987 36.0388C25.6754 36.0324 25.609 35.9893 25.5799 35.9613C25.5533 35.9356 25.5374 35.9049 25.5365 35.8567L23.5368 35.8944ZM25.6852 33.655C24.4758 33.7154 23.4915 34.6521 23.5373 35.9119L25.536 35.8392C25.534 35.7837 25.551 35.7521 25.5739 35.7285C25.5988 35.7029 25.6606 35.6587 25.785 35.6525L25.6852 33.655ZM26.5065 33.651C26.2456 33.6484 25.979 33.6456 25.7038 33.6542L25.7663 35.6533C25.9934 35.6462 26.2188 35.6483 26.4867 35.6509L26.5065 33.651Z" fill="#E60000" mask="url(#path-2-inside-1_1_390)"/>
</g>
</g>
<defs>
<filter id="filter0_b_1_390" x="6.52734" y="10.399" width="60" height="50.3903" filterUnits="userSpaceOnUse" color-interpolation-filters="sRGB">
<feFlood flood-opacity="0" result="BackgroundImageFix"/>
<feGaussianBlur in="BackgroundImageFix" stdDeviation="6"/>
<feComposite in2="SourceAlpha" operator="in" result="effect1_backgroundBlur_1_390"/>
<feBlend mode="normal" in="SourceGraphic" in2="effect1_backgroundBlur_1_390" result="shape"/>
</filter>
<clipPath id="clip0_1_390">
<rect width="36" height="26.4" fill="white" transform="translate(18.5332 22.4)"/>
</clipPath>
</defs>
</svg>
